<?xml version="1.0" standalone="no"?>
<!DOCTYPE svg PUBLIC "-//W3C//DTD SVG 20010904//EN"
 "http://www.w3.org/TR/2001/REC-SVG-20010904/DTD/svg10.dtd">
<svg version="1.0" xmlns="http://www.w3.org/2000/svg"
 width="1280.000000pt" height="1280.000000pt" viewBox="0 0 1280.000000 1280.000000"
 preserveAspectRatio="xMidYMid meet">
<metadata>
Created by potrace 1.15, written by Peter Selinger 2001-2017
</metadata>
<g transform="translate(0.000000,1280.000000) scale(0.100000,-0.100000)"
fill="#000000" stroke="none">
<path d="M5845 12653 c-1342 -121 -2489 -1038 -2939 -2351 -227 -662 -255
-1411 -79 -2097 63 -249 212 -640 286 -755 13 -19 29 -51 37 -70 7 -19 49
-106 92 -194 319 -641 613 -1345 797 -1910 184 -564 275 -1003 296 -1421 4
-66 15 -214 26 -329 16 -166 26 -226 50 -298 67 -205 170 -342 311 -414 110
-56 58 -54 1403 -54 1364 0 1307 -2 1427 62 73 39 182 152 226 236 72 136 91
214 117 502 14 146 30 335 35 420 53 772 465 1967 1145 3318 223 444 318 704
394 1078 56 272 65 376 65 744 1 351 -6 430 -55 690 -112 586 -352 1106 -728
1580 -93 117 -325 356 -446 459 -526 451 -1158 725 -1829 796 -132 14 -513 19
-631 8z"/>
<path d="M4871 2624 c-222 -60 -297 -346 -133 -507 29 -29 72 -57 108 -72 32
-14 50 -25 39 -25 -72 -2 -181 -96 -215 -188 -27 -70 -24 -173 7 -242 34 -77
116 -145 198 -164 29 -7 29 -8 -22 -25 -69 -23 -132 -77 -168 -142 -27 -49
-30 -63 -30 -144 0 -73 4 -99 23 -136 30 -61 86 -116 147 -145 l50 -24 1251 0
1251 0 62 31 c68 34 130 101 152 166 8 21 14 70 14 108 0 119 -60 216 -167
271 -26 13 -55 24 -65 24 -10 0 14 16 53 35 122 59 178 145 178 275 1 89 -24
153 -82 214 -38 39 -121 85 -157 87 -11 0 4 9 33 19 260 88 281 446 34 567
l-57 28 -1225 2 c-1047 2 -1233 0 -1279 -13z"/>
<path d="M5201 669 c22 -41 175 -193 253 -251 102 -76 255 -151 376 -183 448
-119 909 37 1205 408 l37 47 -941 0 -942 0 12 -21z"/>
</g>
</svg>
